<svg width="196" height="32" viewBox="0 0 196 32" fill="none" xmlns="http://www.w3.org/2000/svg">
<path d="M55.3673 31.9557C52.8715 31.9557 50.4345 31.4977 48.0561 30.5817C45.6778 29.6362 43.5637 28.3066 41.7139 26.5928L45.3695 21.9834C47.1606 23.5789 48.8783 24.7313 50.5225 25.4404C52.1962 26.1496 53.9579 26.5042 55.8077 26.5042C57.0996 26.5042 58.2154 26.3564 59.155 26.0609C60.0946 25.7359 60.8139 25.2779 61.3131 24.687C61.8416 24.096 62.1059 23.4017 62.1059 22.6039C62.1059 21.5402 61.7242 20.7276 60.9608 20.1662C60.1973 19.5753 58.8907 19.1173 57.0409 18.7922L50.9189 17.7285C48.3057 17.2853 46.3091 16.3546 44.9291 14.9363C43.5784 13.518 42.9031 11.6861 42.9031 9.44044C42.9031 7.51985 43.3876 5.85042 44.3565 4.43213C45.3548 3.01385 46.7495 1.93536 48.5406 1.19668C50.3611 0.428439 52.5192 0.0443208 55.0149 0.0443208C57.2758 0.0443208 59.522 0.428439 61.7535 1.19668C64.0144 1.96491 66.011 3.02862 67.7434 4.38781L64.308 9.17452C61.0782 6.69252 57.8337 5.45152 54.5745 5.45152C53.4294 5.45152 52.4311 5.59926 51.5796 5.89474C50.7281 6.19021 50.0674 6.60388 49.5976 7.13573C49.1572 7.63804 48.937 8.24377 48.937 8.95291C48.937 9.89843 49.2747 10.6371 49.95 11.169C50.6253 11.6713 51.7558 12.0554 53.3413 12.3213L59.155 13.2964C62.238 13.7987 64.5429 14.7885 66.0698 16.2659C67.5966 17.7138 68.36 19.6343 68.36 22.0277C68.36 24.0369 67.8315 25.795 66.7744 27.3019C65.7174 28.7793 64.2053 29.9317 62.238 30.759C60.3001 31.5568 58.0099 31.9557 55.3673 31.9557Z" fill="#F5F5F5"/>
<path d="M87.3364 31.9557C85.0461 31.9557 82.9027 31.5568 80.9061 30.759C78.9095 29.9317 77.1624 28.7941 75.665 27.3463C74.1969 25.8984 73.037 24.2142 72.1855 22.2936C71.3634 20.3435 70.9523 18.2456 70.9523 16C70.9523 13.7248 71.3634 11.627 72.1855 9.70637C73.037 7.75623 74.2115 6.05725 75.709 4.60942C77.2065 3.16159 78.9388 2.03878 80.9061 1.241C82.9027 0.413666 85.0461 0 87.3364 0C89.0394 0 90.6837 0.23638 92.2692 0.70914C93.8548 1.1819 95.3229 1.84672 96.6735 2.7036C98.0535 3.56048 99.228 4.59464 100.197 5.80609L95.8807 10.1053C94.765 8.71653 93.473 7.66759 92.0049 6.95845C90.5662 6.24931 89.01 5.89474 87.3364 5.89474C85.9564 5.89474 84.6644 6.16067 83.4606 6.69252C82.2567 7.19483 81.2144 7.90397 80.3335 8.81994C79.4527 9.70637 78.7627 10.7701 78.2635 12.0111C77.7643 13.2225 77.5148 14.5522 77.5148 16C77.5148 17.4183 77.7643 18.7479 78.2635 19.9889C78.7627 21.2004 79.4673 22.2641 80.3776 23.1801C81.2878 24.0665 82.3448 24.7608 83.5487 25.2632C84.7819 25.7655 86.1179 26.0166 87.5566 26.0166C89.1715 26.0166 90.6837 25.6768 92.093 24.9972C93.5024 24.3176 94.7503 23.3426 95.8367 22.072L100.021 26.2382C99.0518 27.4201 97.892 28.4395 96.5414 29.2964C95.1907 30.1533 93.7226 30.8181 92.1371 31.2909C90.5809 31.7341 88.9807 31.9557 87.3364 31.9557Z" fill="#F5F5F5"/>
<path d="M118.216 32C115.926 32 113.797 31.6011 111.83 30.8033C109.863 29.976 108.13 28.8384 106.633 27.3906C105.165 25.9132 104.005 24.2142 103.153 22.2936C102.331 20.3435 101.92 18.2456 101.92 16C101.92 13.7544 102.331 11.6713 103.153 9.75069C104.005 7.80055 105.165 6.10157 106.633 4.65374C108.13 3.17636 109.863 2.03878 111.83 1.241C113.797 0.413666 115.926 0 118.216 0C120.506 0 122.635 0.413666 124.602 1.241C126.599 2.03878 128.331 3.17636 129.799 4.65374C131.297 6.10157 132.457 7.80055 133.279 9.75069C134.101 11.6713 134.512 13.7544 134.512 16C134.512 18.2456 134.101 20.3435 133.279 22.2936C132.457 24.2142 131.297 25.9132 129.799 27.3906C128.331 28.8384 126.599 29.976 124.602 30.8033C122.635 31.6011 120.506 32 118.216 32ZM118.216 26.1053C119.625 26.1053 120.917 25.8541 122.092 25.3518C123.266 24.8199 124.294 24.1108 125.175 23.2244C126.056 22.3084 126.746 21.2299 127.245 19.9889C127.744 18.7479 127.994 17.4183 127.994 16C127.994 14.5522 127.744 13.2225 127.245 12.0111C126.746 10.7701 126.056 9.70637 125.175 8.81994C124.294 7.90397 123.266 7.19483 122.092 6.69252C120.917 6.16067 119.625 5.89474 118.216 5.89474C116.836 5.89474 115.559 6.16067 114.384 6.69252C113.21 7.19483 112.182 7.90397 111.301 8.81994C110.42 9.70637 109.73 10.7701 109.231 12.0111C108.732 13.2225 108.483 14.5374 108.483 15.9557C108.483 17.4035 108.732 18.7479 109.231 19.9889C109.73 21.2299 110.42 22.3084 111.301 23.2244C112.182 24.1108 113.21 24.8199 114.384 25.3518C115.559 25.8541 116.836 26.1053 118.216 26.1053Z" fill="#F5F5F5"/>
<path d="M152.106 31.9557C149.317 31.9557 146.894 31.3943 144.839 30.2715C142.813 29.1487 141.242 27.5531 140.127 25.4848C139.011 23.3869 138.453 20.9344 138.453 18.1274V0.487534H144.839V18.1274C144.839 19.723 145.133 21.1265 145.72 22.3379C146.337 23.5199 147.188 24.4358 148.274 25.0859C149.39 25.7064 150.682 26.0166 152.15 26.0166C153.618 26.0166 154.896 25.7064 155.982 25.0859C157.068 24.4358 157.905 23.5199 158.492 22.3379C159.109 21.1265 159.417 19.723 159.417 18.1274V0.487534H165.76V18.1274C165.76 20.9049 165.202 23.3426 164.086 25.4404C162.97 27.5088 161.385 29.1191 159.329 30.2715C157.303 31.3943 154.896 31.9557 152.106 31.9557Z" fill="#F5F5F5"/>
<path d="M179.264 31.5125V6.16066H168.869V0.487534H196V6.16066H185.65V31.5125H179.264Z" fill="#F5F5F5"/>
<path fill-rule="evenodd" clip-rule="evenodd" d="M44.169 0.551983L39.752 8.27597H30.9183L35.3352 0.551837L44.169 0.551983Z" fill="#389FFF"/>
<path fill-rule="evenodd" clip-rule="evenodd" d="M26.5014 31.4483H35.3351C32.3907 26.2988 20.6125 5.7012 17.6678 0.551724H8.83431L26.5014 31.4483Z" fill="#0153FF"/>
<path fill-rule="evenodd" clip-rule="evenodd" d="M30.9183 8.27597L31.4367 8.2762H22.0848L13.2508 23.7237H12.7325H22.0844L30.9183 8.27597Z" fill="#389FFF"/>
<path fill-rule="evenodd" clip-rule="evenodd" d="M0 31.4479L4.41701 23.7239L13.2508 23.7237L8.83383 31.4479H0Z" fill="#389FFF"/>
</svg>
